<svg id="Layer_1_1_" enable-background="new 0 0 64 64" height="512" viewBox="0 0 64 64" width="512" xmlns="http://www.w3.org/2000/svg"><path d="m56.084 34.293c-1.259-1.261-3.165-.25-4.414 1l1.414 1.414c.528-.528 1.347-1.029 1.586-1z"/><path d="m33.824 40.105-4-2c-.495-.246-1.095-.046-1.342.447l-2 4 1.789.895.869-1.737c.731 2.161 1.754 4.291 3.408 5.826 2.07 1.921 4.682 2.939 7.208 3.924.486.189.97.378 1.445.571 2.553 1.04 5.197 2.021 7.856 2.916l.639-1.895c-2.621-.883-5.226-1.85-7.741-2.873-.485-.197-.978-.39-1.473-.583-2.352-.917-4.783-1.865-6.574-3.527-1.392-1.291-2.278-3.194-2.925-5.148l1.946.973z"/><path d="m59.695 30.748c-.423-.464-.928-.966-1.464-1.499-2.336-2.322-5.244-5.211-4.056-7.863.156-.348.375-.691.608-1.056.284-.444.578-.904.801-1.438 1.315-3.15-.957-7.154-2.616-10.077-.235-.415-.456-.803-.647-1.157-1.046-1.938-2.064-3.644-3.113-5.213-.211-.314-.581-.48-.958-.437-.376.048-.693.305-.818.663-.077.221-7.762 21.712-25.28 25.468-.464-1.293-1.823-4.139-4.776-4.139-2.148 0-3.913 1.792-4.546 3.563-.15.42-.251.859-.299 1.305-.223 2.057.682 6.697 2.846 8.96.75.99 4.316 6.109 2.662 11.899-1.917 6.709-5.781 11.602-5.82 11.65l1.562 1.249c.168-.211 4.149-5.239 6.181-12.351 1.282-4.486-.072-8.525-1.392-11.086.584-.014 1.107-.164 1.55-.483 1.223-.881 1.258-2.521 1.258-2.705h-2c0 .127-.074.828-.427 1.082-.32.23-.925.079-1.257-.031-.287-.096-.563-.301-.829-.572-.049-.062-.082-.103-.096-.119l-.01.008c-1.431-1.595-2.449-5.353-2.24-7.286.031-.289.097-.573.194-.846.393-1.1 1.497-2.237 2.663-2.237 1.952 0 2.834 2.582 3.001 3.138v.17c0 .295.13.575.356.766.226.189.524.269.815.22 16.354-2.847 24.66-19.443 27.045-25.105.654 1.06 1.305 2.19 1.968 3.419.197.366.425.768.667 1.195 1.373 2.419 3.447 6.074 2.509 8.319-.156.374-.392.742-.641 1.132-.261.409-.532.833-.748 1.315-1.752 3.914 1.845 7.488 4.472 10.099.511.508.993.985 1.396 1.429.43.472.702 1.037.764 1.591.153 1.356-.631 2.602-1.908 3.027-.959.32-1.622 1.185-1.69 2.182l-1.079 3.424c-.004.011-.002.023-.005.035l-4.293 1.717c-.345.139-.585.456-.623.826-.038.369.132.729.441.936l4.194 2.786c-.487.878-.716 1.883-.617 2.886.009.095.033.188.068.277.548 1.351.64 1.578.649 1.598.561 1.384.207 3.168-.825 4.152-1.534 1.461-4.095 1.078-6.635.445-6.602-1.641-18.333-5.572-22.735-13.465l-1.747.975c2.521 4.519 7.151 7.803 11.976 10.157l-1.737 6.081 1.923.549 1.651-5.779c3.708 1.624 7.389 2.728 10.186 3.424.977.243 2.487.619 4.071.619 1.549 0 3.169-.36 4.426-1.559 1.62-1.544 2.165-4.217 1.294-6.359l-.587-1.446c-.033-.633.14-1.265.493-1.795l.798-1.198c.516-.772.412-1.813-.224-2.325l.408-.816c.37-.739.225-1.629-.358-2.213l-.202-.173 1.035-3.284c.031-.098.046-.199.046-.301 0-.208.133-.392.329-.458 2.181-.727 3.522-2.843 3.262-5.148-.108-.986-.548-1.924-1.27-2.717zm-5.036 14.213c-.266.533-.26 1.151-.017 1.671l-2.124-1.411 2.514-1.005z"/><path d="m19.395 3.919-.789-1.838c-.592.254-14.526 6.357-16.592 18.755-.47 2.818.944 8.101 2.441 13.693 1.12 4.184 2.277 8.51 2.549 11.56.947 10.616-1.829 15.343-1.854 15.385l1.7 1.053c.129-.209 3.16-5.249 2.146-16.615-.288-3.222-1.468-7.633-2.61-11.898-1.375-5.142-2.798-10.457-2.4-12.849 1.885-11.309 15.273-17.188 15.409-17.246z"/><path d="m30.47 18.152 1.06 1.695c8.437-5.272 7.508-14.565 7.464-14.958l-1.988.221c.01.084.845 8.429-6.536 13.042z"/><path d="m25.553 13.105.895 1.789c6.558-3.279 5.589-11.663 5.545-12.019l-1.985.246c.009.074.828 7.343-4.455 9.984z"/><path d="m18.938 14.5h4.123v1.999h-4.123z" transform="matrix(.97 -.243 .243 .97 -3.135 5.562)"/></svg>