<svg xmlns="http://www.w3.org/2000/svg" viewBox="0 0 142.73 129.93"><defs><style>.cls-1{fill:#892936;}</style></defs><title>Camada 1</title><g id="Camada_2" data-name="Camada 2"><g id="Camada_1-2" data-name="Camada 1"><path class="cls-1" d="M73.89,110.22a9,9,0,0,0-1-5c1-3,1-5,5-5,1-3-3-2-3-4s5,1,4-3c0-2-1-3-2-5,0-2,1-3,3-4,3-1,6-2,4-6a25.23,25.23,0,0,0-2.12-3.88A25.92,25.92,0,0,0,79.11,71a12.08,12.08,0,0,1-2.59-2.88,12.33,12.33,0,0,1-1.63-3.87,33,33,0,0,1,0-14c0-5,1-11-2-16a31.26,31.26,0,0,0-9-11c-2-1-4-3-7-4-2.79-.94-4.78-1.95-8-3-2.3-.76-4.9-1.54-7.76-2.29l-1.8-.6c-.73-.26-.95-.34-1.44-.5a16.53,16.53,0,0,0-2.28-.7c-1.27-.26-2.79-1-2.76-1.28.06-.72,7.58-.07,16.38-1.08,4.58-.53,13.19-1.53,13.32-3.42C62.7,4,49.85,1,39.69.23,30.14-.53,25.07.8,23.31,1.31a31.11,31.11,0,0,0-12.24,6.3,31.17,31.17,0,0,0-7.56,9.9C.67,23.32.4,28.43.09,34.25A83.78,83.78,0,0,0,.63,47.57a105.19,105.19,0,0,0,2.7,17.64c1.3,5.11,2.72,8.57,5.58,15.48a225.31,225.31,0,0,0,9.9,20.88c6.7,12.47,10.34,16.54,11.52,17.82,2,2.17,5.08,5.57,7.92,7.2a15.15,15.15,0,0,0,9.65,1.47c7.38-1.25,10.21-12.76,17.28-13.68a7.21,7.21,0,0,1,2.95.23,6.49,6.49,0,0,0,4.44-2A5.8,5.8,0,0,0,73.89,110.22Z"/><path class="cls-1" d="M141.73,26.14c-.82-4.37-1.54-8-4.14-12.06a28,28,0,0,0-13.32-10.8c-4.79-1.84-8.88-1.82-13-1.8-2.92,0-6.06.49-12.24,1.44-6,.92-9,1.39-12.24,2.16-7.5,1.79-7.57,3-15.66,5.58C61.28,13.77,54.69,14,50.43,13.58c2.7.94,4.64,1.87,7.45,2.81,3,1,5,2,8,3s5,3,7,4a31.26,31.26,0,0,1,9,11c3,5,2,11,2,16a33,33,0,0,0,0,14c0,3,3,5,4,7,2,2,4,4,5,7,2,4-1,5-4,6-2,1-3,2-3,4,1,2,2,3,2,5,1,4-4,1-4,3s4,1,3,4c-4,0-4,2-5,5a9,9,0,0,1,1,5c-1,3-2.94,4-5.86,5,5.13,3,8.57,13.32,17.91,14.48a14.61,14.61,0,0,0,4.68-.18c4.71-1,7.81-4.33,10.8-7.92,7.4-8.89,10.44-14.4,10.44-14.4a202.82,202.82,0,0,0,14.76-33.66c2.66-8,4.78-14.54,6.12-23.76C143.42,38.3,142.64,31,141.73,26.14Z"/></g></g></svg>